<?xml version="1.0" standalone="no"?><!DOCTYPE svg PUBLIC "-//W3C//DTD SVG 1.1//EN" "http://www.w3.org/Graphics/SVG/1.1/DTD/svg11.dtd">
<svg class="icon"
    height="200.00px"
    version="1.1"
    viewBox="0 0 1024 1024"
    width="200px"
    xmlns="http://www.w3.org/2000/svg">
    <path
        d="M746.335 845.474c0 18.814-15.319 34.133-34.133 34.133h-639.113c-18.814 0-34.133-15.319-34.133-34.133v-775.236c0-18.814 15.319-34.133 34.133-34.133h639.14c18.814 0 34.133 15.319 34.133 34.133h40.96c0-41.424-33.696-75.093-75.093-75.093h-639.14c-41.424 0-75.093 33.669-75.093 75.093v775.264c0 41.424 33.696 75.093 75.093 75.093h639.14c41.397 0 75.093-33.669 75.093-75.093v-168.51h-40.96v168.482z"
        />
    <path
        d="M967.467 152.895c-1.174-1.693-2.622-3.168-4.233-4.423-1.174-0.928-29.409-22.582-60.703-37.82-9.339-4.533-18.787-6.827-28.044-6.827-27.307 0-42.271 19.36-44.209 22.036l-36.372 52.538c-0.082 0.137-0.109 0.301-0.191 0.41s-0.219 0.164-0.273 0.301l-249.802 395.127c-1.174 1.884-1.747 3.905-2.267 5.953-0.109 0.41-0.464 0.71-0.546 1.147l-28.59 149.422c-1.53 8.028 1.857 16.247 8.656 20.835 3.441 2.321 7.455 3.495 11.441 3.495 3.851 0 7.7-1.092 11.087-3.249l126.348-81.374c1.311-0.847 2.048-2.212 3.113-3.305 0.928-0.928 2.102-1.447 2.867-2.594l262.69-395.455c8.82-12.916 29.218-42.926 36.727-55.242 15.866-26.106-5.243-57.481-7.7-60.976zM863.617 149.617c0.054-0.082 9.202-7.81 20.998-2.13 22.201 10.814 43.445 25.914 50.845 31.348 2.731 4.806 5.216 11.523 4.724 13.626-5.353 8.766-18.486 28.317-28.235 42.681l-72.745-50.299 24.412-35.226zM889.178 269.195l-235.984 355.232-64.498-44.892 227.929-360.53 72.554 50.19zM561.442 691.465l13.681-71.461 46.749 32.523-60.43 38.94z"
         />
    <path
        d="M646.558 203.577c0-11.305-9.175-20.48-20.48-20.48h-512.901c-11.305 0-20.48 9.175-20.48 20.48s9.175 20.48 20.48 20.48h512.928c11.305 0 20.452-9.148 20.452-20.48z"
        />
    <path
        d="M500.44 406.957c0-11.305-9.175-20.48-20.48-20.48h-366.783c-11.305 0-20.48 9.175-20.48 20.48s9.175 20.48 20.48 20.48h366.783c11.305 0 20.48-9.175 20.48-20.48z"
         />
    <path
        d="M113.179 591.113c-11.305 0-20.48 9.175-20.48 20.48s9.175 20.48 20.48 20.48h220.638c11.305 0 20.48-9.175 20.48-20.48s-9.175-20.48-20.48-20.48h-220.638z"
         />
</svg>